<svg width="864" height="1117" viewBox="0 0 864 1117" fill="none" xmlns="http://www.w3.org/2000/svg">
<rect x="249" y="407" width="366" height="368" rx="183" fill="#7A5AF9" fill-opacity="0.55"/>
<g filter="url(#filter0_b_138_3)">
<rect width="864" height="1117" fill="#111111" fill-opacity="0.62"/>
</g>
<g filter="url(#filter1_bd_138_3)">
<rect x="289" y="646" width="70.4674" height="71.0498" rx="35.2337" fill="url(#paint0_linear_138_3)" fill-opacity="0.1" shape-rendering="crispEdges"/>
<rect x="289.291" y="646.291" width="69.885" height="70.4674" rx="34.9425" stroke="url(#paint1_linear_138_3)" stroke-width="0.582375" shape-rendering="crispEdges"/>
</g>
<path d="M302.533 702.834H344.631V660.736H302.533V702.834Z" fill="white"/>
<g filter="url(#filter2_bd_138_3)">
<rect x="397.266" y="646" width="70.4674" height="71.0498" rx="35.2337" fill="url(#paint2_linear_138_3)" fill-opacity="0.1" shape-rendering="crispEdges"/>
<rect x="397.558" y="646.291" width="69.885" height="70.4674" rx="34.9425" stroke="url(#paint3_linear_138_3)" stroke-width="0.582375" shape-rendering="crispEdges"/>
</g>
<path d="M410.842 703.338H453.504V660.675H410.842V703.338Z" fill="white"/>
<g filter="url(#filter3_bd_138_3)">
<rect x="505.533" y="646" width="70.4674" height="71.0498" rx="35.2337" fill="url(#paint4_linear_138_3)" fill-opacity="0.1" shape-rendering="crispEdges"/>
<rect x="505.824" y="646.291" width="69.885" height="70.4674" rx="34.9425" stroke="url(#paint5_linear_138_3)" stroke-width="0.582375" shape-rendering="crispEdges"/>
</g>
<path d="M519.108 703.338H561.77V660.675H519.108V703.338Z" fill="white"/>
<path d="M375.464 488.071V453.25H387.663V488.071C387.663 491.464 386.885 494.403 385.328 496.889C383.794 499.376 381.703 501.304 379.054 502.675C376.428 504.023 373.477 504.697 370.201 504.697C366.808 504.697 363.787 504.128 361.138 502.989C358.512 501.851 356.444 500.096 354.934 497.726C353.447 495.356 352.703 492.335 352.703 488.663H364.972C364.972 490.383 365.17 491.731 365.565 492.707C365.96 493.659 366.541 494.333 367.308 494.728C368.098 495.1 369.062 495.286 370.201 495.286C371.316 495.286 372.257 495.007 373.024 494.45C373.814 493.869 374.418 493.044 374.837 491.975C375.255 490.883 375.464 489.581 375.464 488.071ZM438.379 477.614V479.671C438.379 483.551 437.833 487.037 436.74 490.127C435.671 493.195 434.149 495.821 432.174 498.005C430.199 500.166 427.864 501.827 425.168 502.989C422.473 504.128 419.498 504.697 416.245 504.697C412.969 504.697 409.971 504.128 407.252 502.989C404.557 501.827 402.21 500.166 400.212 498.005C398.236 495.821 396.703 493.195 395.611 490.127C394.542 487.037 394.007 483.551 394.007 479.671V477.614C394.007 473.734 394.542 470.248 395.611 467.157C396.703 464.067 398.225 461.441 400.177 459.28C402.152 457.096 404.487 455.434 407.183 454.296C409.901 453.134 412.899 452.553 416.175 452.553C419.429 452.553 422.403 453.134 425.099 454.296C427.817 455.434 430.164 457.096 432.139 459.28C434.115 461.441 435.648 464.067 436.74 467.157C437.833 470.248 438.379 473.734 438.379 477.614ZM425.97 479.671V477.544C425.97 475.035 425.749 472.827 425.308 470.922C424.889 468.993 424.262 467.378 423.425 466.077C422.589 464.776 421.555 463.8 420.323 463.149C419.115 462.475 417.732 462.138 416.175 462.138C414.549 462.138 413.131 462.475 411.923 463.149C410.715 463.8 409.704 464.776 408.891 466.077C408.077 467.378 407.462 468.993 407.043 470.922C406.648 472.827 406.451 475.035 406.451 477.544V479.671C406.451 482.157 406.648 484.365 407.043 486.293C407.462 488.199 408.077 489.814 408.891 491.138C409.727 492.463 410.75 493.462 411.958 494.136C413.19 494.81 414.619 495.147 416.245 495.147C417.802 495.147 419.185 494.81 420.393 494.136C421.601 493.462 422.612 492.463 423.425 491.138C424.262 489.814 424.889 488.199 425.308 486.293C425.749 484.365 425.97 482.157 425.97 479.671ZM457.724 453.25V504H445.524V453.25H457.724ZM508.718 453.25V504H496.518L478.567 472.421V504H466.333V453.25H478.567L496.518 484.829V453.25H508.718Z" fill="#E8E8E8"/>
<rect x="140" y="565" width="589" height="31" fill="#7A5AF9"/>
<path d="M175.799 578.816H187.999C187.836 582.348 186.883 585.462 185.141 588.157C183.398 590.853 180.981 592.956 177.891 594.466C174.823 595.954 171.198 596.697 167.016 596.697C163.623 596.697 160.591 596.128 157.918 594.989C155.269 593.851 153.015 592.212 151.156 590.075C149.321 587.937 147.915 585.346 146.939 582.302C145.986 579.258 145.51 575.83 145.51 572.019V569.266C145.51 565.455 146.009 562.027 147.008 558.983C148.031 555.916 149.472 553.313 151.331 551.175C153.213 549.014 155.467 547.365 158.093 546.226C160.718 545.087 163.635 544.518 166.841 544.518C171.256 544.518 174.986 545.308 178.03 546.888C181.074 548.468 183.433 550.641 185.106 553.406C186.779 556.148 187.766 559.274 188.069 562.782H175.869C175.823 560.877 175.497 559.285 174.893 558.007C174.289 556.706 173.336 555.73 172.035 555.079C170.734 554.429 169.002 554.103 166.841 554.103C165.331 554.103 164.018 554.382 162.903 554.94C161.787 555.498 160.858 556.381 160.114 557.589C159.371 558.797 158.813 560.366 158.441 562.294C158.093 564.2 157.918 566.5 157.918 569.196V572.019C157.918 574.715 158.081 577.015 158.406 578.921C158.732 580.826 159.254 582.383 159.975 583.591C160.695 584.8 161.625 585.694 162.763 586.275C163.925 586.833 165.343 587.112 167.016 587.112C168.875 587.112 170.443 586.821 171.721 586.24C172.999 585.636 173.987 584.73 174.684 583.522C175.381 582.29 175.753 580.722 175.799 578.816ZM236.727 569.614V571.671C236.727 575.551 236.181 579.037 235.089 582.127C234.02 585.195 232.498 587.821 230.523 590.005C228.548 592.166 226.212 593.827 223.517 594.989C220.821 596.128 217.847 596.697 214.594 596.697C211.317 596.697 208.32 596.128 205.601 594.989C202.905 593.827 200.559 592.166 198.56 590.005C196.585 587.821 195.051 585.195 193.959 582.127C192.89 579.037 192.356 575.551 192.356 571.671V569.614C192.356 565.734 192.89 562.248 193.959 559.157C195.051 556.067 196.573 553.441 198.525 551.28C200.5 549.096 202.836 547.434 205.531 546.296C208.25 545.134 211.248 544.553 214.524 544.553C217.777 544.553 220.752 545.134 223.447 546.296C226.166 547.434 228.513 549.096 230.488 551.28C232.463 553.441 233.997 556.067 235.089 559.157C236.181 562.248 236.727 565.734 236.727 569.614ZM224.319 571.671V569.544C224.319 567.035 224.098 564.827 223.656 562.922C223.238 560.993 222.611 559.378 221.774 558.077C220.938 556.776 219.903 555.8 218.672 555.149C217.464 554.475 216.081 554.138 214.524 554.138C212.897 554.138 211.48 554.475 210.272 555.149C209.063 555.8 208.053 556.776 207.239 558.077C206.426 559.378 205.81 560.993 205.392 562.922C204.997 564.827 204.799 567.035 204.799 569.544V571.671C204.799 574.157 204.997 576.365 205.392 578.293C205.81 580.199 206.426 581.814 207.239 583.138C208.076 584.463 209.098 585.462 210.307 586.136C211.538 586.81 212.967 587.147 214.594 587.147C216.151 587.147 217.533 586.81 218.742 586.136C219.95 585.462 220.961 584.463 221.774 583.138C222.611 581.814 223.238 580.199 223.656 578.293C224.098 576.365 224.319 574.157 224.319 571.671ZM285.456 545.25V596H273.256L255.305 564.421V596H243.071V545.25H255.305L273.256 576.829V545.25H285.456ZM312.399 584.044L322.96 545.25H336.659L319.544 596H310.691L312.399 584.044ZM302.814 545.25L313.375 584.044L315.153 596H306.195L289.185 545.25H302.814ZM375.314 586.589V596H348.266V586.589H375.314ZM352.623 545.25V596H340.388V545.25H352.623ZM371.828 565.397V574.494H348.266V565.397H371.828ZM375.418 545.25V554.696H348.266V545.25H375.418ZM380.333 545.25H400.305C404.209 545.25 407.602 545.831 410.483 546.993C413.365 548.155 415.584 549.874 417.141 552.151C418.721 554.429 419.511 557.24 419.511 560.587C419.511 563.491 419.058 565.919 418.151 567.871C417.245 569.823 415.979 571.438 414.352 572.716C412.749 573.971 410.878 575.005 408.74 575.819L404.732 578.084H387.966L387.897 568.638H400.305C401.862 568.638 403.152 568.359 404.174 567.802C405.197 567.244 405.964 566.454 406.475 565.431C407.009 564.386 407.276 563.143 407.276 561.702C407.276 560.238 407.009 558.983 406.475 557.938C405.94 556.892 405.15 556.09 404.105 555.532C403.082 554.975 401.816 554.696 400.305 554.696H392.567V596H380.333V545.25ZM408.113 596L396.889 573.553L409.856 573.483L421.219 595.477V596H408.113ZM453.042 582.511C453.042 581.721 452.926 581.012 452.694 580.385C452.461 579.734 452.031 579.13 451.404 578.572C450.776 578.014 449.87 577.457 448.685 576.899C447.523 576.318 445.99 575.714 444.084 575.087C441.853 574.343 439.704 573.506 437.636 572.577C435.568 571.624 433.72 570.52 432.094 569.266C430.467 567.988 429.177 566.5 428.225 564.804C427.272 563.085 426.796 561.086 426.796 558.809C426.796 556.625 427.284 554.661 428.26 552.918C429.236 551.152 430.595 549.653 432.338 548.422C434.104 547.167 436.172 546.214 438.542 545.564C440.912 544.89 443.503 544.553 446.315 544.553C450.033 544.553 453.309 545.204 456.144 546.505C459.002 547.783 461.233 549.607 462.837 551.977C464.463 554.324 465.276 557.101 465.276 560.308H453.112C453.112 559.03 452.845 557.903 452.31 556.927C451.799 555.951 451.02 555.184 449.975 554.626C448.929 554.069 447.616 553.79 446.036 553.79C444.502 553.79 443.213 554.022 442.167 554.487C441.121 554.952 440.331 555.579 439.797 556.369C439.262 557.136 438.995 557.984 438.995 558.913C438.995 559.68 439.204 560.377 439.623 561.005C440.064 561.609 440.68 562.178 441.47 562.713C442.283 563.247 443.259 563.758 444.398 564.246C445.56 564.734 446.861 565.211 448.302 565.675C450.997 566.535 453.391 567.5 455.482 568.569C457.597 569.614 459.374 570.811 460.815 572.159C462.279 573.483 463.383 574.994 464.126 576.69C464.893 578.386 465.276 580.303 465.276 582.441C465.276 584.718 464.835 586.74 463.952 588.506C463.069 590.272 461.802 591.771 460.153 593.002C458.503 594.211 456.528 595.129 454.227 595.756C451.927 596.383 449.359 596.697 446.524 596.697C443.921 596.697 441.354 596.372 438.821 595.721C436.311 595.047 434.034 594.025 431.989 592.654C429.944 591.26 428.306 589.482 427.075 587.321C425.866 585.137 425.262 582.546 425.262 579.548H437.531C437.531 581.035 437.729 582.29 438.124 583.313C438.519 584.335 439.1 585.16 439.867 585.787C440.633 586.391 441.575 586.833 442.69 587.112C443.805 587.367 445.083 587.495 446.524 587.495C448.081 587.495 449.336 587.274 450.288 586.833C451.241 586.368 451.938 585.764 452.38 585.02C452.821 584.254 453.042 583.417 453.042 582.511ZM493.091 555.916L480.718 596H467.577L486.225 545.25H494.555L493.091 555.916ZM503.339 596L490.93 555.916L489.327 545.25H497.762L516.514 596H503.339ZM502.851 577.073V586.519H476.814V577.073H502.851ZM540.635 545.25V596H528.4V545.25H540.635ZM555.901 545.25V554.696H513.482V545.25H555.901ZM574.096 545.25V596H561.897V545.25H574.096ZM625.648 569.614V571.671C625.648 575.551 625.102 579.037 624.01 582.127C622.941 585.195 621.419 587.821 619.444 590.005C617.468 592.166 615.133 593.827 612.438 594.989C609.742 596.128 606.768 596.697 603.514 596.697C600.238 596.697 597.24 596.128 594.522 594.989C591.826 593.827 589.479 592.166 587.481 590.005C585.506 587.821 583.972 585.195 582.88 582.127C581.811 579.037 581.276 575.551 581.276 571.671V569.614C581.276 565.734 581.811 562.248 582.88 559.157C583.972 556.067 585.494 553.441 587.446 551.28C589.421 549.096 591.756 547.434 594.452 546.296C597.171 545.134 600.168 544.553 603.445 544.553C606.698 544.553 609.672 545.134 612.368 546.296C615.087 547.434 617.434 549.096 619.409 551.28C621.384 553.441 622.917 556.067 624.01 559.157C625.102 562.248 625.648 565.734 625.648 569.614ZM613.239 571.671V569.544C613.239 567.035 613.018 564.827 612.577 562.922C612.159 560.993 611.531 559.378 610.695 558.077C609.858 556.776 608.824 555.8 607.593 555.149C606.384 554.475 605.002 554.138 603.445 554.138C601.818 554.138 600.401 554.475 599.192 555.149C597.984 555.8 596.973 556.776 596.16 558.077C595.347 559.378 594.731 560.993 594.313 562.922C593.917 564.827 593.72 567.035 593.72 569.544V571.671C593.72 574.157 593.917 576.365 594.313 578.293C594.731 580.199 595.347 581.814 596.16 583.138C596.996 584.463 598.019 585.462 599.227 586.136C600.459 586.81 601.888 587.147 603.514 587.147C605.071 587.147 606.454 586.81 607.662 586.136C608.871 585.462 609.881 584.463 610.695 583.138C611.531 581.814 612.159 580.199 612.577 578.293C613.018 576.365 613.239 574.157 613.239 571.671ZM674.376 545.25V596H662.177L644.226 564.421V596H631.992V545.25H644.226L662.177 576.829V545.25H674.376ZM708.256 582.511C708.256 581.721 708.14 581.012 707.907 580.385C707.675 579.734 707.245 579.13 706.618 578.572C705.99 578.014 705.084 577.457 703.899 576.899C702.737 576.318 701.204 575.714 699.298 575.087C697.067 574.343 694.918 573.506 692.85 572.577C690.782 571.624 688.934 570.52 687.308 569.266C685.681 567.988 684.391 566.5 683.439 564.804C682.486 563.085 682.01 561.086 682.01 558.809C682.01 556.625 682.498 554.661 683.474 552.918C684.45 551.152 685.809 549.653 687.552 548.422C689.318 547.167 691.386 546.214 693.756 545.564C696.126 544.89 698.717 544.553 701.529 544.553C705.247 544.553 708.523 545.204 711.358 546.505C714.216 547.783 716.447 549.607 718.051 551.977C719.677 554.324 720.49 557.101 720.49 560.308H708.326C708.326 559.03 708.059 557.903 707.524 556.927C707.013 555.951 706.234 555.184 705.189 554.626C704.143 554.069 702.83 553.79 701.25 553.79C699.716 553.79 698.427 554.022 697.381 554.487C696.335 554.952 695.545 555.579 695.011 556.369C694.476 557.136 694.209 557.984 694.209 558.913C694.209 559.68 694.418 560.377 694.837 561.005C695.278 561.609 695.894 562.178 696.684 562.713C697.497 563.247 698.473 563.758 699.612 564.246C700.774 564.734 702.075 565.211 703.516 565.675C706.211 566.535 708.605 567.5 710.696 568.569C712.811 569.614 714.588 570.811 716.029 572.159C717.493 573.483 718.597 574.994 719.34 576.69C720.107 578.386 720.49 580.303 720.49 582.441C720.49 584.718 720.049 586.74 719.166 588.506C718.283 590.272 717.016 591.771 715.367 593.002C713.717 594.211 711.742 595.129 709.441 595.756C707.141 596.383 704.573 596.697 701.738 596.697C699.135 596.697 696.568 596.372 694.035 595.721C691.525 595.047 689.248 594.025 687.203 592.654C685.158 591.26 683.52 589.482 682.289 587.321C681.08 585.137 680.476 582.546 680.476 579.548H692.745C692.745 581.035 692.943 582.29 693.338 583.313C693.733 584.335 694.314 585.16 695.081 585.787C695.847 586.391 696.789 586.833 697.904 587.112C699.019 587.367 700.297 587.495 701.738 587.495C703.295 587.495 704.55 587.274 705.502 586.833C706.455 586.368 707.152 585.764 707.594 585.02C708.035 584.254 708.256 583.417 708.256 582.511Z" fill="#E8E8E8"/>
<path d="M394.672 1036.3H400.141C400.068 1037.88 399.641 1039.28 398.859 1040.48C398.078 1041.69 396.995 1042.64 395.609 1043.31C394.234 1043.98 392.609 1044.31 390.734 1044.31C389.214 1044.31 387.854 1044.06 386.656 1043.55C385.469 1043.04 384.458 1042.3 383.625 1041.34C382.802 1040.39 382.172 1039.22 381.734 1037.86C381.307 1036.49 381.094 1034.96 381.094 1033.25V1032.02C381.094 1030.31 381.318 1028.77 381.766 1027.41C382.224 1026.03 382.87 1024.86 383.703 1023.91C384.547 1022.94 385.557 1022.2 386.734 1021.69C387.911 1021.18 389.219 1020.92 390.656 1020.92C392.635 1020.92 394.307 1021.28 395.672 1021.98C397.036 1022.69 398.094 1023.67 398.844 1024.91C399.594 1026.14 400.036 1027.54 400.172 1029.11H394.703C394.682 1028.26 394.536 1027.54 394.266 1026.97C393.995 1026.39 393.568 1025.95 392.984 1025.66C392.401 1025.36 391.625 1025.22 390.656 1025.22C389.979 1025.22 389.391 1025.34 388.891 1025.59C388.391 1025.84 387.974 1026.24 387.641 1026.78C387.307 1027.32 387.057 1028.03 386.891 1028.89C386.734 1029.74 386.656 1030.78 386.656 1031.98V1033.25C386.656 1034.46 386.729 1035.49 386.875 1036.34C387.021 1037.2 387.255 1037.9 387.578 1038.44C387.901 1038.98 388.318 1039.38 388.828 1039.64C389.349 1039.89 389.984 1040.02 390.734 1040.02C391.568 1040.02 392.271 1039.89 392.844 1039.62C393.417 1039.35 393.859 1038.95 394.172 1038.41C394.484 1037.85 394.651 1037.15 394.672 1036.3ZM421.984 1032.17V1033.09C421.984 1034.83 421.74 1036.4 421.25 1037.78C420.771 1039.16 420.089 1040.33 419.203 1041.31C418.318 1042.28 417.271 1043.03 416.062 1043.55C414.854 1044.06 413.521 1044.31 412.062 1044.31C410.594 1044.31 409.25 1044.06 408.031 1043.55C406.823 1043.03 405.771 1042.28 404.875 1041.31C403.99 1040.33 403.302 1039.16 402.812 1037.78C402.333 1036.4 402.094 1034.83 402.094 1033.09V1032.17C402.094 1030.43 402.333 1028.87 402.812 1027.48C403.302 1026.1 403.984 1024.92 404.859 1023.95C405.745 1022.97 406.792 1022.23 408 1021.72C409.219 1021.2 410.562 1020.94 412.031 1020.94C413.49 1020.94 414.823 1021.2 416.031 1021.72C417.25 1022.23 418.302 1022.97 419.188 1023.95C420.073 1024.92 420.76 1026.1 421.25 1027.48C421.74 1028.87 421.984 1030.43 421.984 1032.17ZM416.422 1033.09V1032.14C416.422 1031.02 416.323 1030.03 416.125 1029.17C415.938 1028.31 415.656 1027.58 415.281 1027C414.906 1026.42 414.443 1025.98 413.891 1025.69C413.349 1025.39 412.729 1025.23 412.031 1025.23C411.302 1025.23 410.667 1025.39 410.125 1025.69C409.583 1025.98 409.13 1026.42 408.766 1027C408.401 1027.58 408.125 1028.31 407.938 1029.17C407.76 1030.03 407.672 1031.02 407.672 1032.14V1033.09C407.672 1034.21 407.76 1035.2 407.938 1036.06C408.125 1036.92 408.401 1037.64 408.766 1038.23C409.141 1038.83 409.599 1039.28 410.141 1039.58C410.693 1039.88 411.333 1040.03 412.062 1040.03C412.76 1040.03 413.38 1039.88 413.922 1039.58C414.464 1039.28 414.917 1038.83 415.281 1038.23C415.656 1037.64 415.938 1036.92 416.125 1036.06C416.323 1035.2 416.422 1034.21 416.422 1033.09ZM443.828 1021.25V1044H438.359L430.312 1029.84V1044H424.828V1021.25H430.312L438.359 1035.41V1021.25H443.828ZM455.906 1038.64L460.641 1021.25H466.781L459.109 1044H455.141L455.906 1038.64ZM451.609 1021.25L456.344 1038.64L457.141 1044H453.125L445.5 1021.25H451.609ZM487.484 1032.17V1033.09C487.484 1034.83 487.24 1036.4 486.75 1037.78C486.271 1039.16 485.589 1040.33 484.703 1041.31C483.818 1042.28 482.771 1043.03 481.562 1043.55C480.354 1044.06 479.021 1044.31 477.562 1044.31C476.094 1044.31 474.75 1044.06 473.531 1043.55C472.323 1043.03 471.271 1042.28 470.375 1041.31C469.49 1040.33 468.802 1039.16 468.312 1037.78C467.833 1036.4 467.594 1034.83 467.594 1033.09V1032.17C467.594 1030.43 467.833 1028.87 468.312 1027.48C468.802 1026.1 469.484 1024.92 470.359 1023.95C471.245 1022.97 472.292 1022.23 473.5 1021.72C474.719 1021.2 476.062 1020.94 477.531 1020.94C478.99 1020.94 480.323 1021.2 481.531 1021.72C482.75 1022.23 483.802 1022.97 484.688 1023.95C485.573 1024.92 486.26 1026.1 486.75 1027.48C487.24 1028.87 487.484 1030.43 487.484 1032.17ZM481.922 1033.09V1032.14C481.922 1031.02 481.823 1030.03 481.625 1029.17C481.438 1028.31 481.156 1027.58 480.781 1027C480.406 1026.42 479.943 1025.98 479.391 1025.69C478.849 1025.39 478.229 1025.23 477.531 1025.23C476.802 1025.23 476.167 1025.39 475.625 1025.69C475.083 1025.98 474.63 1026.42 474.266 1027C473.901 1027.58 473.625 1028.31 473.438 1029.17C473.26 1030.03 473.172 1031.02 473.172 1032.14V1033.09C473.172 1034.21 473.26 1035.2 473.438 1036.06C473.625 1036.92 473.901 1037.64 474.266 1038.23C474.641 1038.83 475.099 1039.28 475.641 1039.58C476.193 1039.88 476.833 1040.03 477.562 1040.03C478.26 1040.03 478.88 1039.88 479.422 1039.58C479.964 1039.28 480.417 1038.83 480.781 1038.23C481.156 1037.64 481.438 1036.92 481.625 1036.06C481.823 1035.2 481.922 1034.21 481.922 1033.09Z" fill="#E8E8E8"/>
<defs>
<filter id="filter0_b_138_3" x="-200" y="-200" width="1264" height="1517" filterUnits="userSpaceOnUse" color-interpolation-filters="sRGB">
<feFlood flood-opacity="0" result="BackgroundImageFix"/>
<feGaussianBlur in="BackgroundImageFix" stdDeviation="100"/>
<feComposite in2="SourceAlpha" operator="in" result="effect1_backgroundBlur_138_3"/>
<feBlend mode="normal" in="SourceGraphic" in2="effect1_backgroundBlur_138_3" result="shape"/>
</filter>
<filter id="filter1_bd_138_3" x="286.088" y="643.088" width="76.2912" height="78.6207" filterUnits="userSpaceOnUse" color-interpolation-filters="sRGB">
<feFlood flood-opacity="0" result="BackgroundImageFix"/>
<feGaussianBlur in="BackgroundImageFix" stdDeviation="1.45594"/>
<feComposite in2="SourceAlpha" operator="in" result="effect1_backgroundBlur_138_3"/>
<feColorMatrix in="SourceAlpha" type="matrix" values="0 0 0 0 0 0 0 0 0 0 0 0 0 0 0 0 0 0 127 0" result="hardAlpha"/>
<feOffset dy="2.3295"/>
<feGaussianBlur stdDeviation="1.16475"/>
<feComposite in2="hardAlpha" operator="out"/>
<feColorMatrix type="matrix" values="0 0 0 0 0 0 0 0 0 0 0 0 0 0 0 0 0 0 0.25 0"/>
<feBlend mode="normal" in2="effect1_backgroundBlur_138_3" result="effect2_dropShadow_138_3"/>
<feBlend mode="normal" in="SourceGraphic" in2="effect2_dropShadow_138_3" result="shape"/>
</filter>
<filter id="filter2_bd_138_3" x="394.354" y="643.088" width="76.2912" height="78.6207" filterUnits="userSpaceOnUse" color-interpolation-filters="sRGB">
<feFlood flood-opacity="0" result="BackgroundImageFix"/>
<feGaussianBlur in="BackgroundImageFix" stdDeviation="1.45594"/>
<feComposite in2="SourceAlpha" operator="in" result="effect1_backgroundBlur_138_3"/>
<feColorMatrix in="SourceAlpha" type="matrix" values="0 0 0 0 0 0 0 0 0 0 0 0 0 0 0 0 0 0 127 0" result="hardAlpha"/>
<feOffset dy="2.3295"/>
<feGaussianBlur stdDeviation="1.16475"/>
<feComposite in2="hardAlpha" operator="out"/>
<feColorMatrix type="matrix" values="0 0 0 0 0 0 0 0 0 0 0 0 0 0 0 0 0 0 0.25 0"/>
<feBlend mode="normal" in2="effect1_backgroundBlur_138_3" result="effect2_dropShadow_138_3"/>
<feBlend mode="normal" in="SourceGraphic" in2="effect2_dropShadow_138_3" result="shape"/>
</filter>
<filter id="filter3_bd_138_3" x="502.621" y="643.088" width="76.2912" height="78.6207" filterUnits="userSpaceOnUse" color-interpolation-filters="sRGB">
<feFlood flood-opacity="0" result="BackgroundImageFix"/>
<feGaussianBlur in="BackgroundImageFix" stdDeviation="1.45594"/>
<feComposite in2="SourceAlpha" operator="in" result="effect1_backgroundBlur_138_3"/>
<feColorMatrix in="SourceAlpha" type="matrix" values="0 0 0 0 0 0 0 0 0 0 0 0 0 0 0 0 0 0 127 0" result="hardAlpha"/>
<feOffset dy="2.3295"/>
<feGaussianBlur stdDeviation="1.16475"/>
<feComposite in2="hardAlpha" operator="out"/>
<feColorMatrix type="matrix" values="0 0 0 0 0 0 0 0 0 0 0 0 0 0 0 0 0 0 0.25 0"/>
<feBlend mode="normal" in2="effect1_backgroundBlur_138_3" result="effect2_dropShadow_138_3"/>
<feBlend mode="normal" in="SourceGraphic" in2="effect2_dropShadow_138_3" result="shape"/>
</filter>
<linearGradient id="paint0_linear_138_3" x1="351.364" y1="717.05" x2="294.435" y2="610.489" gradientUnits="userSpaceOnUse">
<stop stop-color="white"/>
<stop offset="0.680673" stop-color="#999999"/>
</linearGradient>
<linearGradient id="paint1_linear_138_3" x1="365" y1="745.004" x2="275.893" y2="634.85" gradientUnits="userSpaceOnUse">
<stop stop-opacity="0"/>
<stop offset="1" stop-color="white"/>
</linearGradient>
<linearGradient id="paint2_linear_138_3" x1="459.63" y1="717.05" x2="402.701" y2="610.489" gradientUnits="userSpaceOnUse">
<stop stop-color="white"/>
<stop offset="0.680673" stop-color="#999999"/>
</linearGradient>
<linearGradient id="paint3_linear_138_3" x1="473.266" y1="745.004" x2="384.159" y2="634.85" gradientUnits="userSpaceOnUse">
<stop stop-opacity="0"/>
<stop offset="1" stop-color="white"/>
</linearGradient>
<linearGradient id="paint4_linear_138_3" x1="567.896" y1="717.05" x2="510.968" y2="610.489" gradientUnits="userSpaceOnUse">
<stop stop-color="white"/>
<stop offset="0.680673" stop-color="#999999"/>
</linearGradient>
<linearGradient id="paint5_linear_138_3" x1="581.533" y1="745.004" x2="492.425" y2="634.85" gradientUnits="userSpaceOnUse">
<stop stop-opacity="0"/>
<stop offset="1" stop-color="white"/>
</linearGradient>
</defs>
</svg>
